# xmcd
#
# Track frame offsets:
#	150
#	16093
#	32497
#	49261
#	62629
#	79388
#	95011
#	109893
#	130845
#	145628
#	162198
#	183590
#	184297
#
# Disc length: 2646 seconds
#
# Revision: 1
# Processed by: cddbd v1.5.2PL0 Copyright (c) Steve Scherf et al.
# Submitted via: audiograbber 1.83.01
#
DISCID=ae0a540d
DTITLE=Stormcellar - Nuevo Retro
DYEAR=2010
DGENRE=Blues
TTITLE0=Can't Tax Love
TTITLE1=That Smile's Not For Me
TTITLE2=Don't Get Around Much
TTITLE3=Little Big Bird
TTITLE4=When You Change Your Mind
TTITLE5=Island Time
TTITLE6=Roscoe's Boogie
TTITLE7=7 Days
TTITLE8=Last Drinks at Glenrowan
TTITLE9=Swamp Monster
TTITLE10=High Cost of Lovin'
TTITLE11=a word from Rodger
TTITLE12=Drin k U Off My Mind
EXTD=
EXTT0=
EXTT1=
EXTT2=
EXTT3=
EXTT4=
EXTT5=
EXTT6=
EXTT7=
EXTT8=
EXTT9=
EXTT10=
EXTT11=
EXTT12=
PLAYORDER=
